<svg width="28" height="28" viewBox="0 0 28 28" fill="none" xmlns="http://www.w3.org/2000/svg">
<path d="M13.5852 1.85459C13.8441 1.71514 14.1559 1.71514 14.4148 1.85459L25.7898 7.97959C26.0733 8.1322 26.25 8.4281 26.25 8.75C26.25 9.0719 26.0733 9.3678 25.7898 9.52041L14.4148 15.6454C14.1559 15.7849 13.8441 15.7849 13.5852 15.6454L2.21016 9.52041C1.92674 9.3678 1.75 9.0719 1.75 8.75C1.75 8.4281 1.92674 8.1322 2.21016 7.97959L13.5852 1.85459Z" fill="#CAFF33"/>
<path d="M3.80879 12.3688L12.7555 17.1862C13.5324 17.6046 14.4676 17.6046 15.2445 17.1862L24.1912 12.3688L25.7898 13.2296C26.0733 13.3822 26.25 13.6781 26.25 14C26.25 14.3219 26.0733 14.6178 25.7898 14.7704L14.4148 20.8954C14.1559 21.0349 13.8441 21.0349 13.5852 20.8954L2.21016 14.7704C1.92674 14.6178 1.75 14.3219 1.75 14C1.75 13.6781 1.92674 13.3822 2.21016 13.2296L3.80879 12.3688Z" fill="#CAFF33"/>
<path d="M12.7555 22.4362L3.80879 17.6188L2.21016 18.4796C1.92674 18.6322 1.75 18.9281 1.75 19.25C1.75 19.5719 1.92674 19.8678 2.21016 20.0204L13.5852 26.1454C13.8441 26.2849 14.1559 26.2849 14.4148 26.1454L25.7898 20.0204C26.0733 19.8678 26.25 19.5719 26.25 19.25C26.25 18.9281 26.0733 18.6322 25.7898 18.4796L24.1912 17.6188L15.2445 22.4362C14.4676 22.8546 13.5324 22.8546 12.7555 22.4362Z" fill="#CAFF33"/>
</svg>
