<svg width="28" height="28" viewBox="0 0 28 28" fill="none" xmlns="http://www.w3.org/2000/svg">
<path d="M7 3.5C5.067 3.5 3.5 5.067 3.5 7V9.625C3.5 11.558 5.067 13.125 7 13.125H9.625C11.558 13.125 13.125 11.558 13.125 9.625V7C13.125 5.067 11.558 3.5 9.625 3.5H7Z" fill="#CAFF33"/>
<path d="M18.375 3.5C16.442 3.5 14.875 5.067 14.875 7V9.625C14.875 11.558 16.442 13.125 18.375 13.125H21C22.933 13.125 24.5 11.558 24.5 9.625V7C24.5 5.067 22.933 3.5 21 3.5H18.375Z" fill="#CAFF33"/>
<path d="M7 14.875C5.067 14.875 3.5 16.442 3.5 18.375V21C3.5 22.933 5.067 24.5 7 24.5H9.625C11.558 24.5 13.125 22.933 13.125 21V18.375C13.125 16.442 11.558 14.875 9.625 14.875H7Z" fill="#CAFF33"/>
<path d="M20.5625 15.75C20.5625 15.2668 20.1707 14.875 19.6875 14.875C19.2043 14.875 18.8125 15.2668 18.8125 15.75V18.8125H15.75C15.2668 18.8125 14.875 19.2043 14.875 19.6875C14.875 20.1707 15.2668 20.5625 15.75 20.5625H18.8125V23.625C18.8125 24.1082 19.2043 24.5 19.6875 24.5C20.1707 24.5 20.5625 24.1082 20.5625 23.625V20.5625H23.625C24.1082 20.5625 24.5 20.1707 24.5 19.6875C24.5 19.2043 24.1082 18.8125 23.625 18.8125H20.5625V15.75Z" fill="#CAFF33"/>
</svg>
