<svg width="29" height="28" viewBox="0 0 29 28" fill="none" xmlns="http://www.w3.org/2000/svg">
<path d="M12.9196 17.4435C12.1334 17.4435 11.6729 17.001 11.6729 16.2068V15.2877C8.37098 15.0608 5.08027 14.3801 1.66602 13.0752V11.2032C5.86645 13.0639 10.0781 13.722 14.6604 13.722C19.254 13.722 23.4656 13.0639 27.666 11.2032V13.0752C24.2518 14.3801 20.961 15.0608 17.6591 15.2877V16.2068C17.6591 17.001 17.1986 17.4435 16.4124 17.4435H12.9196ZM5.13642 24.9886H24.1956C26.5205 24.9886 27.666 23.854 27.666 21.5281V10.4884C27.666 8.16244 26.5205 7.02785 24.1956 7.02785H5.13642C2.82282 7.02785 1.66602 8.16244 1.66602 10.4884V21.5281C1.66602 23.854 2.82282 24.9886 5.13642 24.9886ZM8.96624 8.01495H10.7071V6.0067C10.7071 5.1444 11.2125 4.65652 12.0885 4.65652H17.2436C18.1196 4.65652 18.6138 5.1444 18.6138 6.0067V7.99225H20.3546V6.13151C20.3546 3.99845 19.2427 3 17.2099 3H12.1109C10.1904 3 8.96624 3.99845 8.96624 6.13151V8.01495Z" fill="#CAFF33"/>
</svg>
