<svg width="28" height="28" viewBox="0 0 28 28" fill="none" xmlns="http://www.w3.org/2000/svg">
<path fill-rule="evenodd" clip-rule="evenodd" d="M10.5 5.25C10.8907 5.25 11.234 5.50898 11.3413 5.88462L12.2901 9.20517C12.7053 10.6586 13.8414 11.7947 15.2948 12.2099L18.6154 13.1587C18.991 13.266 19.25 13.6093 19.25 14C19.25 14.3907 18.991 14.734 18.6154 14.8413L15.2948 15.7901C13.8414 16.2053 12.7053 17.3414 12.2901 18.7948L11.3413 22.1154C11.234 22.491 10.8907 22.75 10.5 22.75C10.1093 22.75 9.76599 22.491 9.65867 22.1154L8.70994 18.7948C8.29468 17.3414 7.15858 16.2053 5.70517 15.7901L2.38462 14.8413C2.00898 14.734 1.75 14.3907 1.75 14C1.75 13.6093 2.00898 13.266 2.38462 13.1587L5.70517 12.2099C7.15858 11.7947 8.29468 10.6586 8.70994 9.20517L9.65867 5.88462C9.76599 5.50898 10.1093 5.25 10.5 5.25Z" fill="#CAFF33"/>
<path fill-rule="evenodd" clip-rule="evenodd" d="M21 1.75C21.4015 1.75 21.7515 2.02326 21.8489 2.41278L22.1509 3.62082C22.4252 4.71807 23.2819 5.5748 24.3792 5.84912L25.5872 6.15113C25.9767 6.24851 26.25 6.59849 26.25 7C26.25 7.40151 25.9767 7.75149 25.5872 7.84887L24.3792 8.15088C23.2819 8.4252 22.4252 9.28193 22.1509 10.3792L21.8489 11.5872C21.7515 11.9767 21.4015 12.25 21 12.25C20.5985 12.25 20.2485 11.9767 20.1511 11.5872L19.8491 10.3792C19.5748 9.28193 18.7181 8.4252 17.6208 8.15088L16.4128 7.84887C16.0233 7.75149 15.75 7.40151 15.75 7C15.75 6.59849 16.0233 6.24851 16.4128 6.15113L17.6208 5.84912C18.7181 5.5748 19.5748 4.71807 19.8491 3.62082L20.1511 2.41278C20.2485 2.02326 20.5985 1.75 21 1.75Z" fill="#CAFF33"/>
<path fill-rule="evenodd" clip-rule="evenodd" d="M19.25 17.5C19.6266 17.5 19.961 17.741 20.0801 18.0983L20.5401 19.4782C20.7142 20.0007 21.1243 20.4108 21.6468 20.5849L23.0267 21.0449C23.384 21.164 23.625 21.4984 23.625 21.875C23.625 22.2516 23.384 22.586 23.0267 22.7051L21.6468 23.1651C21.1243 23.3392 20.7142 23.7493 20.5401 24.2718L20.0801 25.6517C19.961 26.009 19.6266 26.25 19.25 26.25C18.8734 26.25 18.539 26.009 18.4199 25.6517L17.9599 24.2718C17.7858 23.7493 17.3757 23.3392 16.8532 23.1651L15.4733 22.7051C15.116 22.586 14.875 22.2516 14.875 21.875C14.875 21.4984 15.116 21.164 15.4733 21.0449L16.8532 20.5849C17.3757 20.4108 17.7858 20.0007 17.9599 19.4782L18.4199 18.0983C18.539 17.741 18.8734 17.5 19.25 17.5Z" fill="#CAFF33"/>
</svg>
