<svg width="24" height="24" viewBox="0 0 24 24" fill="none" xmlns="http://www.w3.org/2000/svg">
<g clip-path="url(#clip0_108_2457)">
<path d="M14.154 5.50259C14.1804 5.53339 14.1848 5.54219 14.1892 5.54219C14.6247 5.60377 14.827 5.9293 15.0602 6.25483C15.3285 6.62435 15.6496 6.96308 15.9928 7.27102C16.8946 8.08484 17.4489 9.07023 17.6336 10.2712C17.9547 12.3739 16.7494 14.5339 14.7698 15.3741C11.7653 16.6498 8.40879 14.7098 8.06127 11.4633C7.87651 9.73449 8.50997 8.30479 9.82969 7.17863C10.2564 6.81351 10.6127 6.3912 10.9075 5.91171C10.9602 5.82372 11.057 5.75334 11.1494 5.70935C11.299 5.63896 11.4661 5.59937 11.6553 5.53339C11.5937 5.4586 11.5497 5.40581 11.5013 5.35303C11.2066 5.04949 10.9119 4.73716 10.6127 4.44242C10.5071 4.33684 10.4588 4.22687 10.4632 4.0773C10.472 3.45263 10.4676 2.83237 10.4676 2.2077C10.4676 1.95695 10.7755 1.55664 11.0262 1.50825C11.3122 1.45106 11.6069 1.42027 11.8928 1.36308C11.9764 1.34548 12.0688 1.2927 12.1172 1.22671C12.5351 0.66363 13.2698 0.659231 13.6833 1.21791C13.7405 1.2927 13.8504 1.34988 13.9428 1.37188C14.2068 1.42907 14.4751 1.45986 14.7434 1.50825C15.0118 1.56104 15.2977 1.90856 15.2977 2.1813C15.2977 2.81037 15.2933 3.44383 15.3021 4.0729C15.3065 4.23566 15.2537 4.34564 15.1437 4.46002C14.8094 4.79874 14.4883 5.14627 14.154 5.50259ZM12.3064 7.95287C12.2932 8.00566 12.28 8.03645 12.2844 8.06285C12.3416 8.35758 12.2052 8.48515 11.9324 8.59513C11.4133 8.81069 11.1802 9.24619 11.1934 9.80487C11.2066 10.3592 11.5057 10.7023 12.0072 10.8826C12.2272 10.9618 12.4559 11.019 12.6759 11.0938C12.8782 11.1598 13.0806 11.2258 13.2742 11.305C13.4369 11.3709 13.5293 11.4985 13.5117 11.6833C13.4941 11.8724 13.3753 11.9824 13.2082 12.0132C13.0366 12.0484 12.8518 12.0792 12.6891 12.0396C12.3723 11.9648 12.0688 11.8372 11.7345 11.7229C11.5849 11.9208 11.4133 12.1452 11.2066 12.4223C11.5189 12.5587 11.7873 12.6995 12.0732 12.7962C12.236 12.849 12.302 12.9194 12.28 13.0866C12.2668 13.2053 12.2756 13.3285 12.2756 13.4649C12.5263 13.4649 12.7375 13.4649 12.9486 13.4649C13.2522 13.4649 13.2654 13.4649 13.2478 13.1526C13.239 12.959 13.2829 12.8534 13.4941 12.827C13.6041 12.8138 13.7141 12.7522 13.8152 12.6951C14.2815 12.4399 14.4751 12.0308 14.4663 11.5117C14.4575 11.019 14.2111 10.6803 13.7712 10.4823C13.5733 10.3943 13.3621 10.3284 13.151 10.258C12.887 10.17 12.6231 10.0908 12.3591 9.99403C12.1964 9.93244 12.1304 9.80047 12.1436 9.62451C12.1568 9.45735 12.258 9.34297 12.4119 9.31658C12.5967 9.28578 12.7947 9.26819 12.975 9.29898C13.195 9.33857 13.4017 9.43975 13.6349 9.51893C13.78 9.29458 13.9296 9.05703 14.1056 8.77989C13.9032 8.68751 13.7317 8.57314 13.5469 8.54234C13.2873 8.49835 13.2082 8.37958 13.239 8.13323C13.2478 8.07604 13.1686 7.96167 13.1202 7.95727C12.8562 7.94407 12.5791 7.95287 12.3064 7.95287Z" fill="#CAFF33"/>
<path d="M12.5438 23.1912C11.6068 23.1912 10.6654 23.1648 9.72837 23.2C9.0993 23.222 8.56262 23.0328 8.05672 22.6985C7.33968 22.219 6.68422 21.6735 6.11234 21.0225C5.26772 20.0591 4.41431 19.0957 3.56969 18.1323C2.87903 17.3405 3.19137 16.1703 4.17676 15.8492C4.29113 15.8096 4.4231 15.7964 4.54188 15.7964C5.32491 15.792 6.11234 15.7876 6.89537 15.8008C7.00535 15.8008 7.13732 15.858 7.2165 15.9328C7.75319 16.4519 8.28108 16.9841 8.80456 17.5164C8.91014 17.622 9.00692 17.644 9.15649 17.622C9.47322 17.5736 9.79875 17.5296 10.1199 17.5296C11.6024 17.5208 13.0804 17.5252 14.5629 17.5252C15.0688 17.5252 15.4427 17.7848 15.5747 18.2159C15.7771 18.8669 15.302 19.4784 14.5761 19.4828C13.5951 19.4872 12.6097 19.4828 11.6288 19.4828C11.4528 19.4828 11.2768 19.4784 11.1009 19.4828C10.7841 19.4916 10.5774 19.694 10.573 19.9799C10.573 20.2702 10.7797 20.4902 11.0921 20.4902C12.6537 20.4946 14.2154 20.4946 15.7771 20.4902C16.0938 20.4902 16.3226 20.3142 16.5425 20.1031C17.5631 19.1221 18.5837 18.1411 19.6086 17.1645C20.0266 16.7642 20.5808 16.7466 20.9768 17.1029C21.4035 17.49 21.4123 18.1147 20.9812 18.5502C20.5281 19.0121 20.0661 19.4476 19.6086 19.8919C18.5969 20.8729 17.5851 21.8495 16.5777 22.8305C16.3314 23.068 16.0586 23.1912 15.7111 23.1912C14.6553 23.1868 13.5995 23.1912 12.5438 23.1912Z" fill="#CAFF33"/>
<path d="M7.3089 4.60083C7.73561 5.02754 8.16232 5.45425 8.58023 5.87216C8.32069 6.1317 8.04794 6.40444 7.7752 6.67279C7.37049 6.25488 6.94378 5.81497 6.53467 5.39266C6.77662 5.14631 7.04936 4.86477 7.3089 4.60083Z" fill="#CAFF33"/>
<path d="M18.4169 4.60083C18.6764 4.86037 18.9447 5.13752 19.1955 5.38826C18.7776 5.80617 18.3421 6.24168 17.9198 6.65959C17.6646 6.40444 17.3963 6.1273 17.1279 5.85896C17.5458 5.44985 17.9769 5.02754 18.4169 4.60083Z" fill="#CAFF33"/>
<path d="M19.4283 11.5337C19.4283 11.1598 19.4239 10.8166 19.4327 10.4735C19.4327 10.4295 19.5163 10.3503 19.5603 10.3503C20.097 10.3416 20.6293 10.3416 21.166 10.3503C21.21 10.3503 21.2935 10.4163 21.2935 10.4515C21.3023 10.8079 21.2979 11.1642 21.2979 11.5337C20.6689 11.5337 20.0618 11.5337 19.4283 11.5337Z" fill="#CAFF33"/>
<path d="M6.28417 11.5469C5.6771 11.5469 5.10963 11.5513 4.53775 11.5425C4.49376 11.5425 4.42337 11.4589 4.41897 11.4105C4.41018 11.1026 4.40578 10.7947 4.41897 10.4867C4.41897 10.4383 4.50695 10.3503 4.55534 10.3503C5.08323 10.3416 5.61112 10.3416 6.13901 10.3503C6.18739 10.3503 6.27538 10.4207 6.27538 10.4647C6.28857 10.8079 6.28417 11.1598 6.28417 11.5469Z" fill="#CAFF33"/>
</g>
<defs>
<clipPath id="clip0_108_2457">
<rect width="18.1021" height="22.4" fill="white" transform="translate(3.2002 0.800049)"/>
</clipPath>
</defs>
</svg>
