<svg width="29" height="28" viewBox="0 0 29 28" fill="none" xmlns="http://www.w3.org/2000/svg">
<path d="M14.333 8.75C12.8833 8.75 11.708 9.92525 11.708 11.375C11.708 12.8247 12.8833 14 14.333 14C15.7828 14 16.958 12.8247 16.958 11.375C16.958 9.92525 15.7828 8.75 14.333 8.75Z" fill="#CAFF33"/>
<path fill-rule="evenodd" clip-rule="evenodd" d="M2.08301 5.6875C2.08301 4.47938 3.06238 3.5 4.27051 3.5H24.3955C25.6036 3.5 26.583 4.47938 26.583 5.6875V17.0625C26.583 18.2706 25.6036 19.25 24.3955 19.25H4.27051C3.06238 19.25 2.08301 18.2706 2.08301 17.0625V5.6875ZM9.95801 11.375C9.95801 8.95875 11.9168 7 14.333 7C16.7493 7 18.708 8.95875 18.708 11.375C18.708 13.7912 16.7493 15.75 14.333 15.75C11.9168 15.75 9.95801 13.7912 9.95801 11.375ZM22.208 10.5C21.7248 10.5 21.333 10.8918 21.333 11.375V11.3837C21.333 11.867 21.7248 12.2587 22.208 12.2587H22.2168C22.7 12.2587 23.0918 11.867 23.0918 11.3837V11.375C23.0918 10.8918 22.7 10.5 22.2168 10.5H22.208ZM5.58301 11.375C5.58301 10.8918 5.97476 10.5 6.45801 10.5H6.46676C6.95001 10.5 7.34176 10.8918 7.34176 11.375V11.3837C7.34176 11.867 6.95001 12.2587 6.46676 12.2587H6.45801C5.97476 12.2587 5.58301 11.867 5.58301 11.3837V11.375Z" fill="#CAFF33"/>
<path d="M2.95801 21C2.47476 21 2.08301 21.3918 2.08301 21.875C2.08301 22.3582 2.47476 22.75 2.95801 22.75C9.25806 22.75 15.3599 23.5926 21.1577 25.1707C22.5468 25.5488 23.958 24.5196 23.958 23.0476V21.875C23.958 21.3918 23.5663 21 23.083 21H2.95801Z" fill="#CAFF33"/>
</svg>
