<svg width="20" height="20" viewBox="0 0 20 20" fill="none" xmlns="http://www.w3.org/2000/svg">
<path d="M8.75214 12.4596C8.19059 12.4596 7.86166 12.1435 7.86166 11.5762V10.9198C5.50313 10.7577 3.15262 10.2715 0.713867 9.33943V8.00226C3.71417 9.33134 6.72251 9.8014 9.99558 9.8014C13.2767 9.8014 16.285 9.33134 19.2853 8.00226V9.33943C16.8465 10.2715 14.496 10.7577 12.1375 10.9198V11.5762C12.1375 12.1435 11.8086 12.4596 11.247 12.4596H8.75214ZM3.19273 17.849H16.8064C18.467 17.849 19.2853 17.0386 19.2853 15.3772V7.49168C19.2853 5.8303 18.467 5.01987 16.8064 5.01987H3.19273C1.54015 5.01987 0.713867 5.8303 0.713867 7.49168V15.3772C0.713867 17.0386 1.54015 17.849 3.19273 17.849ZM5.92831 5.72494H7.17175V4.29048C7.17175 3.67455 7.53275 3.32607 8.15848 3.32607H11.8407C12.4664 3.32607 12.8194 3.67455 12.8194 4.29048V5.70873H14.0628V4.37963C14.0628 2.85602 13.2686 2.14284 11.8166 2.14284H8.1745C6.80273 2.14284 5.92831 2.85602 5.92831 4.37963V5.72494Z" fill="#B3B3B3"/>
</svg>
