<svg width="24" height="24" viewBox="0 0 24 24" fill="none" xmlns="http://www.w3.org/2000/svg">
<g clip-path="url(#clip0_108_2470)">
<path d="M19.7262 11.2147C19.7262 11.813 19.7343 12.4073 19.7222 13.0056C19.7142 13.3284 19.8065 13.6118 19.9752 13.8794C20.4088 14.58 20.9829 15.1665 21.5651 15.7451C21.7819 15.9616 22.0067 16.1663 22.2355 16.367C22.348 16.4654 22.4001 16.5677 22.4001 16.7212C22.3921 17.3786 22.3921 18.0319 22.3961 18.6893C22.4001 19.2364 22.1593 19.6457 21.6574 19.874C21.1435 20.1062 20.6617 20.0078 20.2401 19.6497C19.3689 18.9018 18.5017 18.15 17.6345 17.4022C17.0443 16.8905 16.4581 16.3709 15.8559 15.875C15.6431 15.6979 15.3902 15.568 15.1453 15.4342C14.7839 15.2374 14.3945 15.1311 13.9729 15.1468C13.6678 15.1586 13.3546 15.1626 13.0495 15.139C12.6039 15.1035 12.2867 14.8005 12.2265 14.3832C12.1703 14.0172 12.3911 13.6236 12.7604 13.4819C12.901 13.4268 13.0575 13.4032 13.2101 13.4032C14.3664 13.3953 15.5227 13.3992 16.683 13.3992C17.1166 13.3992 17.2732 13.2457 17.2732 12.8167C17.2732 11.9508 17.2691 11.0848 17.2732 10.2189C17.2772 9.88828 17.1607 9.6285 16.9078 9.40415C15.4504 8.121 14.001 6.82998 12.5477 5.53896C12.1582 5.19258 12.114 4.6809 12.4393 4.30698C12.7604 3.93305 13.2864 3.89763 13.6999 4.21251C15.5588 5.62948 17.4137 7.04646 19.2806 8.45556C19.5897 8.68779 19.7343 8.97118 19.7303 9.34511C19.7222 9.967 19.7262 10.5889 19.7262 11.2147Z" fill="#CAFF33"/>
<path d="M0.804021 17.7643C0.804021 17.41 0.808036 17.0558 0.800006 16.7015C0.795991 16.5638 0.8522 16.4732 0.944542 16.3788C1.55079 15.7687 2.149 15.1507 2.7432 14.5288C2.86766 14.3989 2.96001 14.2454 3.06841 14.1037C3.35346 13.7219 3.48595 13.3047 3.47391 12.8167C3.44982 11.6909 3.47792 10.5613 3.46186 9.43166C3.45384 8.98689 3.61443 8.67201 3.97978 8.39648C5.83465 7.011 7.66945 5.6019 9.51227 4.19673C9.8977 3.90153 10.4277 3.94876 10.7408 4.303C11.062 4.66512 11.0339 5.18468 10.6605 5.52318C10.0944 6.03486 9.5203 6.53474 8.95019 7.04249C8.04685 7.8415 7.1435 8.64445 6.24015 9.44347C6.02737 9.6324 5.92298 9.86069 5.92298 10.1362C5.92298 11.0533 5.91897 11.9704 5.92298 12.8914C5.92298 13.2299 6.09963 13.3953 6.44893 13.3953C7.64134 13.3992 8.82975 13.3953 10.0222 13.3992C10.5842 13.3992 10.9777 13.7849 10.9657 14.3045C10.9576 14.702 10.6645 15.0602 10.259 15.1192C10.0181 15.1547 9.76521 15.1704 9.5203 15.1468C8.69726 15.0681 8.00268 15.3633 7.38841 15.8435C6.76209 16.3315 6.17592 16.8747 5.5777 17.3903C4.69844 18.1461 3.8232 18.9096 2.93993 19.6614C2.22529 20.2715 1.16937 20.0039 0.864244 19.134C0.824096 19.0238 0.812051 18.9018 0.808036 18.7876C0.800006 18.4491 0.804021 18.1067 0.804021 17.7643Z" fill="#CAFF33"/>
<path d="M12.1699 12.0295C12.1699 12.2184 12.1699 12.3955 12.1699 12.5884C11.8326 12.5884 11.5115 12.5884 11.1622 12.5884C11.1622 12.4349 11.1581 12.2853 11.1622 12.1358C11.1662 12.0256 11.1341 11.9783 11.0176 11.9508C10.6844 11.872 10.3752 11.7382 10.0862 11.5099C10.2709 11.2698 10.4475 11.0415 10.6081 10.829C10.9132 10.9431 11.1903 11.077 11.4834 11.1439C11.6961 11.1911 11.933 11.1596 12.1538 11.1242C12.3225 11.0966 12.4309 10.9668 12.4429 10.7896C12.459 10.6086 12.3626 10.4826 12.202 10.4196C11.929 10.3173 11.6439 10.2386 11.3669 10.1481C11.1662 10.0811 10.9574 10.0221 10.7607 9.93945C10.299 9.74659 10.0541 9.40415 10.042 8.90034C10.03 8.37291 10.2307 7.94782 10.7125 7.71953C11.0257 7.56996 11.2947 7.45975 11.1381 7.02285C11.4793 7.02285 11.7764 7.01891 12.0776 7.03072C12.1097 7.03072 12.1659 7.12912 12.1659 7.18422C12.186 7.51879 12.186 7.51092 12.5031 7.62112C12.6878 7.6841 12.8645 7.77463 13.0652 7.86516C12.8966 8.121 12.7601 8.34536 12.6075 8.5579C12.5834 8.58939 12.4871 8.58545 12.4309 8.56971C12.1659 8.5028 11.9089 8.4162 11.6439 8.36504C11.5396 8.34536 11.4191 8.37684 11.3107 8.4044C11.1501 8.44769 11.0417 8.55397 11.0297 8.72715C11.0176 8.8964 11.0939 9.02629 11.2505 9.08927C11.4552 9.17192 11.664 9.2349 11.8728 9.30181C12.1016 9.3766 12.3385 9.4317 12.5593 9.51436C13.1977 9.75839 13.4547 10.1441 13.4225 10.7778C13.3904 11.3604 13.0251 11.7933 12.4228 11.9626C12.3506 11.9862 12.2743 12.0059 12.1699 12.0295Z" fill="#CAFF33"/>
</g>
<defs>
<clipPath id="clip0_108_2470">
<rect width="21.6" height="16" fill="white" transform="translate(0.799805 4)"/>
</clipPath>
</defs>
</svg>
