<svg width="28" height="28" viewBox="0 0 28 28" fill="none" xmlns="http://www.w3.org/2000/svg">
<path fill-rule="evenodd" clip-rule="evenodd" d="M14 2.625C7.71776 2.625 2.625 7.71776 2.625 14C2.625 20.2822 7.71776 25.375 14 25.375C20.2822 25.375 25.375 20.2822 25.375 14C25.375 7.71776 20.2822 2.625 14 2.625ZM10.5 8.75C10.0168 8.75 9.625 9.14175 9.625 9.625C9.625 10.1082 10.0168 10.5 10.5 10.5H12.25C13.3929 10.5 14.3653 11.2305 14.7256 12.25H10.5C10.0168 12.25 9.625 12.6418 9.625 13.125C9.625 13.6082 10.0168 14 10.5 14H14.7256C14.3653 15.0195 13.3929 15.75 12.25 15.75H10.5C10.1461 15.75 9.82704 15.9632 9.69161 16.2902C9.55617 16.6171 9.63103 16.9935 9.88128 17.2437L13.3813 20.7437C13.723 21.0854 14.277 21.0854 14.6187 20.7437C14.9604 20.402 14.9604 19.848 14.6187 19.5063L12.5987 17.4863C14.5582 17.3318 16.1546 15.8862 16.5375 14H17.5C17.9832 14 18.375 13.6082 18.375 13.125C18.375 12.6418 17.9832 12.25 17.5 12.25H16.5375C16.4062 11.6035 16.1324 11.0087 15.7503 10.5H17.5C17.9832 10.5 18.375 10.1082 18.375 9.625C18.375 9.14175 17.9832 8.75 17.5 8.75H10.5Z" fill="#CAFF33"/>
</svg>
