<svg width="20" height="20" viewBox="0 0 20 20" fill="none" xmlns="http://www.w3.org/2000/svg">
<path fill-rule="evenodd" clip-rule="evenodd" d="M7.16907 3.16563C7.85588 2.37578 8.86943 1.875 10 1.875C11.1305 1.875 12.144 2.37573 12.8308 3.16551C13.8751 3.09255 14.946 3.45513 15.7455 4.25464C16.545 5.05415 16.9076 6.12507 16.8347 7.16933C17.6243 7.85613 18.125 8.86957 18.125 10C18.125 11.1306 17.6242 12.1443 16.8342 12.8311C16.907 13.8751 16.5444 14.9458 15.7451 15.7452C14.9457 16.5446 13.875 16.9072 12.8309 16.8344C12.1441 17.6242 11.1306 18.125 10 18.125C8.8695 18.125 7.856 17.6243 7.1692 16.8345C6.12493 16.9075 5.054 16.5449 4.25448 15.7454C3.45496 14.9459 3.09238 13.8749 3.16534 12.8307C2.37565 12.1439 1.875 11.1304 1.875 10C1.875 8.86951 2.37571 7.85602 3.16546 7.16921C3.09258 6.12504 3.45517 5.05423 4.25462 4.25478C5.05406 3.45533 6.12489 3.09274 7.16907 3.16563ZM13.0086 8.48827C13.2092 8.20739 13.1442 7.81705 12.8633 7.61642C12.5824 7.41579 12.192 7.48084 11.9914 7.76173L9.29525 11.5364L7.94194 10.1831C7.69786 9.93898 7.30214 9.93898 7.05806 10.1831C6.81398 10.4271 6.81398 10.8229 7.05806 11.0669L8.93306 12.9419C9.06297 13.0719 9.24346 13.138 9.42655 13.1229C9.60964 13.1077 9.7768 13.0128 9.88358 12.8633L13.0086 8.48827Z" fill="#CAFF33"/>
</svg>
